<?xml version="1.0" encoding="UTF-8" standalone="no"?>
<!DOCTYPE svg PUBLIC "-//W3C//DTD SVG 1.1//EN" "http://www.w3.org/Graphics/SVG/1.1/DTD/svg11.dtd">
<svg width="100%" height="100%" viewBox="0 0 794 873" version="1.1" xmlns="http://www.w3.org/2000/svg" xmlns:xlink="http://www.w3.org/1999/xlink" xml:space="preserve" xmlns:serif="http://www.serif.com/" style="fill-rule:evenodd;clip-rule:evenodd;stroke-linecap:round;stroke-linejoin:round;stroke-miterlimit:1.5;">
    <g transform="matrix(1,0,0,1,-223.082,-403.646)">
        <g transform="matrix(1.66806,0,0,1.66806,-414.25,-560.273)">
            <path d="M854.331,765.367L854.331,1002.56C854.331,1054.65 851.071,1096.95 620.079,1096.95C389.086,1096.95 385.827,1054.65 385.827,1002.56L385.827,765.367C385.827,765.367 415.584,744.837 423.447,754.84C434.851,769.348 448.719,796.059 489.303,780.82C520.589,769.072 585.512,735.114 604.16,759.658C616.363,775.72 637.766,800.194 649.193,785.967C664.718,766.635 717.841,735.045 741.908,757.111C772.046,784.745 808.024,808.393 836.074,770.826C852.188,749.245 854.331,765.367 854.331,765.367Z" style="fill:rgb(241,118,59);stroke:black;stroke-width:3.75px;"/>
        </g>
        <g id="jar-curve" serif:id="jar curve" transform="matrix(1.78506,0,0,1.92292,-486.626,-759.86)">
            <path d="M619.98,1055.35C835.832,1055.35 838.878,1018.67 838.878,973.475L838.878,750.462C838.878,705.272 779.231,692.218 770.67,668.583L469.29,668.583C460.729,692.218 401.083,705.272 401.083,750.462L401.083,973.475C401.083,1018.67 404.128,1055.35 619.98,1055.35" style="fill:none;stroke:black;stroke-width:6.74px;"/>
        </g>
        <g id="bottom-indent" serif:id="bottom indent" transform="matrix(1.87902,0,0,1.66806,-545.063,-560.273)">
            <g id="jat-bottom-ring" serif:id="jat bottom ring" transform="matrix(1.36417,0,0,2.15088,346.588,-998.905)">
                <path d="M304.056,952.232C305.871,952.794 307.287,953.368 308.263,953.959C309.163,954.504 309.672,955.043 309.665,955.609C309.659,956.069 309.294,956.506 308.663,956.944C307.93,957.454 306.844,957.943 305.444,958.423C300.376,960.159 291.308,961.675 279.35,962.906C268.378,964.036 254.985,964.904 240.009,965.466C227.741,965.927 214.413,966.198 200.481,966.178C191.413,966.177 182.602,966.055 174.172,965.843C162.884,965.559 152.286,965.066 142.668,964.498C141.875,964.451 141.091,964.389 140.309,964.365C139.182,964.33 138.081,964.338 136.982,964.344C136.225,964.349 135.496,964.374 134.753,964.387C134.427,964.361 134.133,964.529 134.098,964.762C134.062,964.995 134.297,965.205 134.623,965.23C135.313,965.352 135.988,965.48 136.694,965.591C137.722,965.753 138.758,965.887 139.819,966.027C140.028,966.054 140.235,966.085 140.446,966.106C140.932,966.154 141.425,966.175 141.919,966.209C147.881,966.617 154.227,966.968 160.887,967.244C173.175,967.754 186.527,968.017 200.481,968.019C214.463,967.999 227.84,967.725 240.146,967.191C255.191,966.538 268.635,965.52 279.639,964.27C291.79,962.89 300.978,961.202 306.093,959.369C309.381,958.191 311.029,956.878 311.012,955.609C311.001,954.809 310.375,954.007 309.083,953.254C308.018,952.633 306.485,952.027 304.517,951.45C304.215,951.359 303.867,951.461 303.739,951.677C303.612,951.892 303.754,952.142 304.056,952.232Z"/>
            </g>
            <g id="jat-bottom-ring1" serif:id="jat bottom ring" transform="matrix(1.36417,0,0,2.15088,346.588,-998.905)">
                <path d="M104.693,960.335C100.885,959.635 97.803,958.887 95.553,958.098C94.249,957.641 93.236,957.183 92.555,956.699C92.047,956.338 91.727,955.988 91.722,955.609C91.718,955.317 91.898,955.033 92.21,954.748C92.665,954.331 93.367,953.927 94.287,953.524C97.877,951.952 104.527,950.5 113.52,949.216C128.203,947.118 149.048,945.501 173.086,944.695C173.251,944.69 173.381,944.59 173.374,944.472C173.368,944.354 173.229,944.261 173.063,944.266C148.931,944.754 127.981,946.101 113.199,948.009C103.863,949.214 96.961,950.66 93.205,952.236C90.714,953.281 89.538,954.468 89.523,955.609C89.509,956.732 90.62,957.905 92.985,958.965C95.381,960.04 99.144,961.068 104.072,962.02C104.723,962.142 105.39,961.864 105.561,961.399C105.733,960.934 105.344,960.458 104.693,960.335Z"/>
            </g>
        </g>
        <g transform="matrix(1.66806,0,0,1.30042,-414.25,-320.907)">
            <g transform="matrix(1,0,0,1,6.71262,12.7362)">
                <path d="M782.185,615.669C778.933,615.669 776.292,612.282 776.292,608.11L450.44,608.11C450.44,612.282 447.8,615.669 444.547,615.669L444.547,630.787C447.8,630.787 450.44,634.174 450.44,638.346L776.292,638.346C776.292,634.174 778.933,630.787 782.185,630.787L782.185,615.669Z" style="fill:none;stroke:black;stroke-width:5.57px;"/>
            </g>
            <g transform="matrix(1,0,0,1,6.71262,-17.5)">
                <path d="M782.185,615.669C778.933,615.669 776.292,612.282 776.292,608.11L450.44,608.11C450.44,612.282 447.8,615.669 444.547,615.669L444.547,630.787C447.8,630.787 450.44,634.174 450.44,638.346L776.292,638.346C776.292,634.174 778.933,630.787 782.185,630.787L782.185,615.669Z" style="fill:none;stroke:black;stroke-width:5.57px;"/>
            </g>
            <g transform="matrix(1,0,0,1,6.71262,-47.7362)">
                <path d="M782.185,615.669C778.933,615.669 776.292,612.282 776.292,608.11L450.44,608.11C450.44,612.282 447.8,615.669 444.547,615.669L444.547,630.787C447.8,630.787 450.44,634.174 450.44,638.346L776.292,638.346C776.292,634.174 778.933,630.787 782.185,630.787L782.185,615.669Z" style="fill:none;stroke:black;stroke-width:5.57px;"/>
            </g>
        </g>
        <g id="face" transform="matrix(3.31934,0,0,3.31934,-1438.17,-1897.14)">
            <g transform="matrix(0.673529,0,0,0.673529,201.831,282.644)">
                <circle cx="568.403" cy="815.132" r="3.15"/>
            </g>
            <g transform="matrix(0.673529,0,0,0.673529,272.214,282.644)">
                <circle cx="568.403" cy="815.132" r="3.15"/>
            </g>
            <g transform="matrix(1,0,0,1,0.0641825,0)">
                <path d="M572.927,854.4C604.319,859.15 635.71,859.166 667.102,854.4" style="fill:none;stroke:black;stroke-width:1.26px;"/>
            </g>
        </g>
    </g>
</svg>
